<svg height='100px' width='100px'  fill="#000000" xmlns="http://www.w3.org/2000/svg" xmlns:xlink="http://www.w3.org/1999/xlink" version="1.1" x="0px" y="0px" viewBox="0 0 100 100" enable-background="new 0 0 100 100" xml:space="preserve"><path d="M54.803,46.455l-1.791-2.925L50,42.506l-3.012,1.023l-1.791,2.925L50,58.741L54.803,46.455z M50.004,50.926l-2.677-4.582  l2.669,2.082l2.67-2.082L50.004,50.926z"></path><polygon points="89.589,38.441 57.986,51.154 87.141,36.007 94.333,24.888 57.756,47.999 52.888,61.054 52.888,61.054   51.135,65.782 49.958,63.466 48.845,65.727 47.112,61.054 47.112,61.054 42.243,47.999 5.667,24.888 12.859,36.007 42.014,51.154   10.41,38.441 17.354,46.984 42.824,53.97 14.089,49.208 21.375,56.447 43.69,56.479 20.491,58.994 28.378,63.592 44.383,59.057   29.212,65.95 38.25,66.518 45.724,61.666 40.663,75.112 47.826,70.303 49.958,75.112 52.16,70.293 59.338,75.112 54.275,61.666   61.751,66.518 70.788,65.95 55.616,59.057 71.621,63.592 79.509,58.994 56.309,56.479 78.624,56.447 85.911,49.208 57.177,53.97   82.646,46.984 "></polygon></svg>